# xmcd CD database file
#
# Track frame offsets:
#	150
#	23000
#	59030
#	85261
#	104968
#	132396
#	154483
#	178671
#	201737
#	230597
#	255658
#	302234
#
# Disc length: 4349 seconds
#
# Revision: 0
# Processed by: cddbd v1.5.2PL0 Copyright (c) Steve Scherf et al.
# Submitted via: CDex 1.51
#
DISCID=b910fb0c
DTITLE=Kitaro - The Essential Kitaro(Japan Edition)
DYEAR=2006
DGENRE=New Age
TTITLE0=As the Wind Blows
TTITLE1=Passage of Life
TTITLE2=Nageki
TTITLE3=Estrella
TTITLE4=Caravansary
TTITLE5=The Field
TTITLE6=Theme from Silk Road
TTITLE7=Nagare No Naka De
TTITLE8=Aqua
TTITLE9=Floating Lotus
TTITLE10=Kio
TTITLE11=Shizuku
EXTD=YEAR: 2006
EXTT0=
EXTT1=
EXTT2=
EXTT3=
EXTT4=
EXTT5=
EXTT6=
EXTT7=
EXTT8=
EXTT9=
EXTT10=
EXTT11=
PLAYORDER=
